<svg width="40" height="27" viewBox="0 0 40 27" fill="none" xmlns="http://www.w3.org/2000/svg">
<path d="M35.5556 12.4445V23.1111C35.5556 24.5839 34.4059 25.7778 32.9877 25.7778H3.45682C2.0386 25.7778 0.888916 24.5839 0.888916 23.1111V12.4445H35.5556Z" fill="white"/>
<path d="M0.888916 8H35.5556V12.4444H0.888916V8Z" fill="#3E3D42"/>
<path d="M35.5556 8.17782V8.88893H0.888916V8.17782C0.888916 6.60688 2.0386 5.33337 3.45682 5.33337H32.9877C34.4059 5.33337 35.5556 6.60688 35.5556 8.17782Z" fill="white"/>
<path d="M39.1111 3.55558V19.5556C39.1111 21.0283 37.9614 22.2222 36.5432 22.2222H35.2593V8.22225C35.2593 6.74949 34.1096 5.55558 32.6914 5.55558H4.44446V3.55558C4.44446 2.08282 5.59415 0.888916 7.01236 0.888916H36.5432C37.9614 0.888916 39.1111 2.08282 39.1111 3.55558Z" fill="white"/>
<path d="M6.66665 23.1111C8.38487 23.1111 9.77776 21.7182 9.77776 20C9.77776 18.2818 8.38487 16.8889 6.66665 16.8889C4.94843 16.8889 3.55554 18.2818 3.55554 20C3.55554 21.7182 4.94843 23.1111 6.66665 23.1111Z" fill="#FAD762"/>
<path d="M9.33328 23.1111C11.0515 23.1111 12.4444 21.7182 12.4444 20C12.4444 18.2818 11.0515 16.8889 9.33328 16.8889C7.61506 16.8889 6.22217 18.2818 6.22217 20C6.22217 21.7182 7.61506 23.1111 9.33328 23.1111Z" fill="#FFDC64"/>
<path fill-rule="evenodd" clip-rule="evenodd" d="M36.7742 0H7.09677C5.31604 0.00201621 3.87297 1.45682 3.87097 3.25203V4.55285H3.22581C1.44507 4.55486 0.00199995 6.00967 0 7.80488V23.4146C0.00199995 25.2098 1.44507 26.6646 3.22581 26.6667H32.9032C34.684 26.6646 36.127 25.2098 36.129 23.4146V22.1138H36.7742C38.5549 22.1118 39.998 20.657 40 18.8618V3.25203C39.998 1.45682 38.5549 0.00201621 36.7742 0ZM3.22581 5.85366H32.9032C33.9717 5.85487 34.8375 6.72775 34.8387 7.80488H1.29032C1.29152 6.72775 2.15737 5.85487 3.22581 5.85366ZM34.8387 9.10569H1.29032V12.3577H34.8387V9.10569ZM34.8387 23.4146C34.8375 24.4918 33.9717 25.3646 32.9032 25.3659H3.22581C2.15737 25.3646 1.29152 24.4918 1.29032 23.4146V13.6585H34.8387V23.4146ZM36.7742 20.813C37.8426 20.8118 38.7085 19.9389 38.7097 18.8618V3.25203C38.7085 2.17491 37.8426 1.30202 36.7742 1.30081H7.09677C6.02833 1.30202 5.16249 2.17491 5.16129 3.25203V4.55285H32.9032C34.684 4.55486 36.127 6.00967 36.129 7.80488V20.813H36.7742Z" fill="black"/>
<path fill-rule="evenodd" clip-rule="evenodd" d="M8.00142 16.3654C8.49313 16.1245 9.02819 15.9999 9.56964 16.0003C11.1088 16.0001 12.4928 16.996 13.0642 18.5148C13.6356 20.0335 13.2791 21.769 12.1642 22.8965C11.0492 24.024 9.40047 24.3164 8.00142 23.6346C6.42125 24.406 4.54952 23.9265 3.47358 22.4748C2.39764 21.023 2.39764 18.977 3.47358 17.5252C4.54952 16.0735 6.42125 15.594 8.00142 16.3654ZM8.00142 22.0793C8.59609 21.5741 8.94233 20.809 8.94235 20C8.94233 19.191 8.59609 18.4259 8.00142 17.9207C7.40674 18.4258 7.0605 19.191 7.0605 20C7.0605 20.809 7.40674 21.5742 8.00142 22.0793ZM3.92407 20C3.92276 19.2338 4.2322 18.5042 4.77324 17.9978C5.31427 17.4914 6.03441 17.2573 6.74944 17.3554C5.49144 18.865 5.49144 21.135 6.74944 22.6446C6.03441 22.7427 5.31427 22.5086 4.77324 22.0022C4.2322 21.4958 3.92276 20.7662 3.92407 20ZM9.25341 22.6446C9.35828 22.6589 9.4639 22.6662 9.56964 22.6665C10.5051 22.6684 11.3638 22.1171 11.7976 21.2363C12.2313 20.3555 12.1679 19.2914 11.6332 18.4758C11.0985 17.6601 10.1812 17.2283 9.25341 17.3554C10.5114 18.865 10.5114 21.135 9.25341 22.6446Z" fill="black"/>
<path d="M32.2339 16.8889H21.0994C20.7377 16.8889 20.4445 17.2869 20.4445 17.7778C20.4445 18.2687 20.7377 18.6667 21.0994 18.6667H32.2339C32.5957 18.6667 32.8889 18.2687 32.8889 17.7778C32.8889 17.2869 32.5957 16.8889 32.2339 16.8889Z" fill="black"/>
<path d="M32.237 18.6666H23.7629C23.4029 18.6666 23.1111 19.0646 23.1111 19.5555C23.1111 20.0464 23.4029 20.4444 23.7629 20.4444H32.237C32.597 20.4444 32.8889 20.0464 32.8889 19.5555C32.8889 19.0646 32.597 18.6666 32.237 18.6666Z" fill="black"/>
<path d="M27.8518 20.4445H27.2592C26.9319 20.4445 26.6666 20.8424 26.6666 21.3333C26.6666 21.8243 26.9319 22.2222 27.2592 22.2222H27.8518C28.1791 22.2222 28.4444 21.8243 28.4444 21.3333C28.4444 20.8424 28.1791 20.4445 27.8518 20.4445Z" fill="black"/>
<path d="M32.1778 20.4445H30.0445C29.6517 20.4445 29.3334 20.8424 29.3334 21.3333C29.3334 21.8243 29.6517 22.2222 30.0445 22.2222H32.1778C32.5706 22.2222 32.8889 21.8243 32.8889 21.3333C32.8889 20.8424 32.5706 20.4445 32.1778 20.4445Z" fill="black"/>
</svg>
