<svg width="40" height="40" viewBox="0 0 40 40" fill="none" xmlns="http://www.w3.org/2000/svg">
<path d="M39.3846 19.6923L34.0016 22.1623L38.2198 26.3182L32.3146 26.793L34.849 32.1429L29.1365 30.5738L29.6954 36.4668L24.8632 33.0432L23.3638 38.7692L20 33.8954L16.6361 38.7692L15.1367 33.0432L10.3044 36.4668L10.8634 30.5737L5.15087 32.1428L7.68533 26.7929L1.78013 26.3182L5.99838 22.1623L0.615356 19.6923L5.99838 17.2222L1.78013 13.0664L7.68533 12.5916L5.15095 7.24169L10.8634 8.81073L10.3045 2.91772L15.1367 6.34132L16.6361 0.615356L20 5.48913L23.3638 0.615356L24.8632 6.34132L29.6955 2.9178L29.1366 8.81081L34.8491 7.24177L32.3146 12.5917L38.2198 13.0664L34.0016 17.2222L39.3846 19.6923Z" fill="#FFDC64"/>
<path d="M20.3076 30.7692C26.4253 30.7692 31.3846 25.8099 31.3846 19.6923C31.3846 13.5747 26.4253 8.61536 20.3076 8.61536C14.19 8.61536 9.23071 13.5747 9.23071 19.6923C9.23071 25.8099 14.19 30.7692 20.3076 30.7692Z" fill="white"/>
<path fill-rule="evenodd" clip-rule="evenodd" d="M35.0979 17.0298L39.6238 19.1065H39.6241C39.8532 19.2116 40 19.4404 40 19.6923C40 19.9442 39.8532 20.173 39.6241 20.2781L35.0982 22.3549L38.6448 25.8491C38.8247 26.0262 38.8847 26.2918 38.7983 26.5289C38.7119 26.766 38.495 26.9309 38.2432 26.9509L33.2781 27.35L35.4091 31.8483C35.5169 32.076 35.4821 32.3457 35.32 32.5386C35.1578 32.7315 34.8981 32.8124 34.6549 32.7456L29.8525 31.4263L30.3223 36.3803C30.3461 36.6312 30.2213 36.8729 30.003 36.999C29.7847 37.1252 29.5129 37.1127 29.3071 36.967L25.2436 34.0879L23.9826 38.9032C23.9188 39.147 23.7186 39.3313 23.4701 39.3749C23.2217 39.4185 22.9706 39.3134 22.8274 39.106L19.9998 35.0092L17.1726 39.106C17.0294 39.3134 16.7783 39.4185 16.5299 39.3749C16.2814 39.3313 16.0812 39.147 16.0174 38.9032L14.7564 34.0879L10.6928 36.9669C10.487 37.1127 10.2151 37.1253 9.99668 36.9991C9.77829 36.873 9.65353 36.6312 9.67735 36.3802L10.1469 31.4266L5.34473 32.7456C5.10151 32.8125 4.84159 32.7316 4.67939 32.5386C4.51719 32.3455 4.48249 32.0758 4.59054 31.848L6.72117 27.3498L1.75605 26.9506C1.5045 26.9304 1.28784 26.7655 1.20154 26.5285C1.11524 26.2915 1.17514 26.0261 1.35485 25.849L4.90175 22.3549L0.375906 20.2781C0.146823 20.173 0 19.9442 0 19.6923C0 19.4404 0.146823 19.2116 0.375906 19.1065L4.90143 17.0298L1.35485 13.5355C1.17511 13.3584 1.11524 13.0929 1.20164 12.8559C1.28804 12.6189 1.50483 12.454 1.75646 12.4339L6.72157 12.0346L4.59063 7.53629C4.48278 7.30858 4.51757 7.03896 4.67971 6.84604C4.84185 6.65312 5.10161 6.57224 5.34473 6.639L10.1472 7.95827L9.67735 3.00429C9.65361 2.75344 9.77834 2.51176 9.99664 2.38561C10.2149 2.25946 10.4868 2.27196 10.6926 2.41762L14.7561 5.29668L16.0171 0.481457C16.0809 0.237639 16.2811 0.0533626 16.5295 0.00974798C16.778 -0.0338666 17.0291 0.0711808 17.1723 0.278647L19.9998 4.37545L22.8274 0.278647C22.9706 0.0711808 23.2217 -0.0338666 23.4701 0.00974798C23.7186 0.0533626 23.9188 0.237639 23.9826 0.481457L25.2436 5.29676L29.3069 2.4177C29.5126 2.27189 29.7846 2.2593 30.003 2.38547C30.2214 2.51165 30.3461 2.75344 30.3223 3.00437L29.8528 7.95802L34.6549 6.639C34.8982 6.57193 35.1583 6.65274 35.3206 6.84582C35.4829 7.0389 35.5176 7.3088 35.4095 7.53661L33.2785 12.0348L38.2436 12.434C38.4952 12.4542 38.7118 12.6192 38.7981 12.8561C38.8844 13.0931 38.8245 13.3585 38.6448 13.5356L35.0979 17.0298ZM33.3444 22.047C33.3811 21.8384 33.518 21.6612 33.7106 21.5728L37.8087 19.6923L33.7106 17.8121C33.518 17.7238 33.3811 17.5465 33.3444 17.3379C33.3077 17.1294 33.3759 16.9161 33.5268 16.7674L36.7352 13.6064L32.2438 13.2453C32.0324 13.2284 31.8429 13.1088 31.7368 12.9254C31.6307 12.742 31.6215 12.5182 31.7123 12.3268L33.6413 8.25479L29.2934 9.44908C29.0889 9.50524 28.8699 9.45743 28.7075 9.3212C28.5451 9.18496 28.4601 8.97769 28.4801 8.76677L28.9053 4.28287L25.2288 6.88765C25.056 7.01009 24.8341 7.03997 24.635 6.96759C24.436 6.89522 24.2851 6.72982 24.2315 6.52506L23.0906 2.16832L20.531 5.87699C20.4105 6.05147 20.212 6.15567 19.9998 6.15567C19.7877 6.15567 19.5891 6.05147 19.4687 5.87699L16.9091 2.16832L15.7682 6.52506C15.7145 6.72979 15.5637 6.89517 15.3647 6.96754C15.1656 7.03991 14.9437 7.01005 14.7709 6.88765L11.0944 4.28287L11.5197 8.7666C11.5397 8.97754 11.4547 9.18484 11.2923 9.32109C11.1299 9.45735 10.9109 9.50517 10.7064 9.449L6.35835 8.25471L8.28737 12.3268C8.37815 12.5182 8.36901 12.742 8.26292 12.9254C8.15683 13.1088 7.96733 13.2284 7.756 13.2453L3.26459 13.6064L6.47287 16.7674C6.62363 16.9161 6.69171 17.1293 6.65503 17.3378C6.61834 17.5462 6.48156 17.7234 6.28908 17.8118L2.19097 19.6923L6.28908 21.5725C6.48169 21.6608 6.61857 21.8381 6.65526 22.0467C6.69195 22.2552 6.62377 22.4685 6.47287 22.6172L3.26451 25.7785L7.75592 26.1393C7.96726 26.1562 8.15679 26.2758 8.2629 26.4592C8.36901 26.6426 8.37815 26.8664 8.28737 27.0578L6.35835 31.1298L10.7063 29.9355C10.9108 29.8794 11.1298 29.9272 11.2922 30.0634C11.4546 30.1997 11.5396 30.4069 11.5196 30.6178L11.0944 35.1017L14.7709 32.497C14.9436 32.3745 15.1656 32.3447 15.3647 32.417C15.5637 32.4894 15.7145 32.6548 15.7682 32.8596L16.9091 37.2163L19.4687 33.5076C19.5891 33.3331 19.7877 33.229 19.9998 33.229C20.212 33.229 20.4105 33.3331 20.531 33.5076L23.0906 37.2163L24.2315 32.8596C24.2851 32.6548 24.436 32.4894 24.635 32.4171C24.834 32.3447 25.056 32.3746 25.2287 32.497L28.9052 35.1017L28.48 30.618C28.46 30.4071 28.545 30.1998 28.7074 30.0635C28.8698 29.9273 29.0888 29.8794 29.2933 29.9356L33.6413 31.1302L31.7123 27.0582C31.6215 26.8667 31.6307 26.643 31.7368 26.4596C31.8428 26.2762 32.0323 26.1566 32.2437 26.1396L36.7351 25.7785L33.5268 22.6175C33.3759 22.4688 33.3077 22.2556 33.3444 22.047Z" fill="black"/>
<path d="M23.4898 14.9623L15.5778 22.8744C15.3203 23.1319 15.3203 23.5494 15.5778 23.8069C15.8353 24.0644 16.2527 24.0644 16.5102 23.8069L24.4223 15.8948C24.6798 15.6373 24.6798 15.2198 24.4223 14.9623C24.1648 14.7049 23.7473 14.7049 23.4898 14.9623Z" fill="black"/>
<path fill-rule="evenodd" clip-rule="evenodd" d="M19.077 17.2308C19.077 18.2504 18.2504 19.077 17.2308 19.077C16.2117 19.0758 15.3858 18.2499 15.3846 17.2308C15.3846 16.2112 16.2112 15.3846 17.2308 15.3846C18.2504 15.3846 19.077 16.2112 19.077 17.2308ZM17.8462 17.2308C17.8462 16.8909 17.5707 16.6154 17.2308 16.6154C16.8911 16.6158 16.6158 16.8911 16.6154 17.2308C16.6154 17.5707 16.8909 17.8462 17.2308 17.8462C17.5707 17.8462 17.8462 17.5707 17.8462 17.2308Z" fill="black"/>
<path fill-rule="evenodd" clip-rule="evenodd" d="M20.9231 22.1538C20.9231 21.1342 21.7496 20.3077 22.7692 20.3077C23.7884 20.3088 24.6143 21.1347 24.6154 22.1538C24.6154 23.1734 23.7889 24 22.7692 24C21.7496 24 20.9231 23.1734 20.9231 22.1538ZM22.1539 22.1538C22.1539 22.4937 22.4294 22.7692 22.7692 22.7692C23.109 22.7688 23.3843 22.4935 23.3846 22.1538C23.3846 21.814 23.1091 21.5384 22.7692 21.5384C22.4294 21.5384 22.1539 21.814 22.1539 22.1538Z" fill="black"/>
<path fill-rule="evenodd" clip-rule="evenodd" d="M8.61536 19.6923C8.61536 13.2453 13.8607 8 20.3077 8C26.7547 8 32 13.2453 32 19.6923C32 26.1393 26.7547 31.3846 20.3077 31.3846C13.8607 31.3846 8.61536 26.1393 8.61536 19.6923ZM9.9145 19.6923C9.9145 25.4323 14.5677 30.0855 20.3077 30.0855C26.045 30.079 30.6944 25.4296 30.7008 19.6923C30.7008 13.9523 26.0476 9.29915 20.3077 9.29915C14.5677 9.29915 9.9145 13.9523 9.9145 19.6923Z" fill="black"/>
</svg>
