<svg width="20" height="20" viewBox="0 0 20 20" fill="none" xmlns="http://www.w3.org/2000/svg">
<path fill-rule="evenodd" clip-rule="evenodd" d="M10 20C15.5228 20 20 15.5228 20 10C20 4.47715 15.5228 0 10 0C4.47715 0 0 4.47715 0 10C0 15.5228 4.47715 20 10 20Z" fill="#76BBFA"/>
<path d="M14.2333 7.56729C13.8819 7.21602 13.3121 7.21602 12.9607 7.56729L9.09806 11.43L7.0349 9.36702C6.68354 9.01575 6.11375 9.01575 5.7623 9.36702C5.41094 9.71838 5.41094 10.2882 5.7623 10.6396L8.46176 13.3389C8.63753 13.5146 8.86775 13.6024 9.09797 13.6024C9.32819 13.6024 9.55859 13.5145 9.73418 13.3389L14.2331 8.83998C14.5846 8.48853 14.5846 7.91874 14.2333 7.56729Z" fill="white"/>
<path fill-rule="evenodd" clip-rule="evenodd" d="M1 9.99784C1 5.03632 5.03641 1 9.99793 1C14.9594 1 18.9959 5.03632 18.9959 9.99784C18.9959 14.9594 14.9594 18.9958 9.99793 18.9958C5.03641 18.9958 1 14.9594 1 9.99784ZM2.79964 9.99784C2.79964 13.9669 6.02875 17.1961 9.99793 17.1961C13.967 17.1961 17.1962 13.9669 17.1962 9.99784C17.1962 6.02875 13.967 2.79955 9.99793 2.79955C6.02884 2.79955 2.79964 6.02875 2.79964 9.99784Z" fill="white"/>
</svg>
