<svg width="50" height="53" viewBox="0 0 50 53" fill="none" xmlns="http://www.w3.org/2000/svg">
<path d="M23.0039 21L23 30.3597C23 30.7151 23.1414 31.0548 23.3929 31.3056L30.1039 38L32 36.1082L25.6818 29.8057L25.6856 21L23.0039 21Z" fill="#79BFFF"/>
<path d="M16.8974 12.7945L14.9194 7.64198L23.4907 11.4578L19.6745 20.0283L17.8584 15.2975C11.2942 19.1767 8.26928 27.3415 11.0912 34.6921C14.2377 42.8883 23.4652 46.9964 31.6622 43.8501C39.8592 40.7038 43.9676 31.4772 40.821 23.2809C39.0523 18.6735 35.3266 15.2017 30.5994 13.756L31.3741 11.2187C36.8877 12.9051 41.2348 16.9544 43.2985 22.33C46.9692 31.8918 42.1747 42.6573 32.6132 46.3273C23.0517 49.9973 12.2845 45.2049 8.61365 35.643C5.26658 26.9244 8.97204 17.2231 16.8974 12.7945Z" fill="#79BFFF"/>
</svg>
