<svg width="45" height="50" viewBox="0 0 45 50" fill="none" xmlns="http://www.w3.org/2000/svg">
<path fill-rule="evenodd" clip-rule="evenodd" d="M42.075 8.64167L43.259 9.81917C44.8893 11.4492 44.8909 14.0824 43.2623 15.7142L38.5474 20.4025V39.1667C38.5474 39.1699 38.547 39.1731 38.5465 39.1763C38.5454 39.1819 38.5437 39.1874 38.5419 39.1929L38.5395 39.2007L38.5378 39.2078C38.537 39.2115 38.5365 39.2153 38.5365 39.2192C38.5323 39.2922 38.518 39.3643 38.4938 39.4333L38.4888 39.4482L38.4858 39.4575L38.4857 39.4578C38.4799 39.476 38.4742 39.4938 38.4661 39.5117C38.4256 39.6025 38.3688 39.6852 38.2985 39.7558L28.2436 49.7558C28.0862 49.9118 27.8733 49.9995 27.6512 50H0.837914C0.375176 50 0 49.6269 0 49.1667V0.833333C0 0.373125 0.375176 0 0.837914 0H37.7061C38.1689 0 38.544 0.373125 38.544 0.833333V7.46417C39.8416 7.28312 41.1494 7.71927 42.075 8.64167ZM28.4891 40V47.155L35.6834 40H28.4891ZM36.8682 38.3333H27.6512C27.1884 38.3333 26.8132 38.7065 26.8132 39.1667V48.3333H1.67583V1.66667H36.8682V8.07167C36.8569 8.07859 36.8469 8.08732 36.8369 8.0961C36.8276 8.10421 36.8183 8.11236 36.8079 8.11917C36.5711 8.27125 36.3507 8.44719 36.1501 8.64417L8.89278 35.75C8.88833 35.7544 8.88554 35.7596 8.88276 35.7646C8.88031 35.7691 8.87788 35.7736 8.87434 35.7775C8.81517 35.8408 8.76657 35.9131 8.73022 35.9917C8.72741 35.9976 8.72415 36.0033 8.72088 36.009C8.71637 36.0168 8.71184 36.0246 8.70844 36.0333L8.70173 36.0467L5.4942 44.6433C5.33353 45.0749 5.55505 45.5544 5.98899 45.7142C6.15888 45.7767 6.34447 45.7828 6.51813 45.7317L15.6514 43.0308C15.6596 43.0281 15.6673 43.0241 15.6751 43.0202C15.6816 43.0168 15.6881 43.0135 15.695 43.0108C15.7036 43.0075 15.716 43.002 15.7291 42.9962C15.739 42.9918 15.7493 42.9873 15.7586 42.9833C15.8438 42.9454 15.922 42.8936 15.9899 42.83C15.9899 42.83 15.9983 42.8258 16.0016 42.8225L16.0109 42.8133L16.0201 42.8042L36.8682 22.0692V38.3333ZM34.9619 18.0742L13.6345 39.285L15.4117 41.0525L36.7392 19.8417L34.9619 18.0742ZM13.8256 41.8333L7.65183 43.66L9.817 37.85L13.8256 41.8333ZM10.6725 36.3392L12.4497 38.1067L33.7797 16.8958L32.0024 15.1283L10.6725 36.3392ZM37.924 18.6667L33.1814 13.95L34.3679 12.77L39.1071 17.4833L37.924 18.6667ZM42.0742 14.5392V14.5358C43.0492 13.5564 43.0484 11.9785 42.0725 11L40.8927 9.8225C40.1474 9.07865 39.0134 8.87875 38.0564 9.3225C37.7875 9.44448 37.543 9.61385 37.3349 9.8225L35.556 11.5917L40.2953 16.305L42.0742 14.5392Z" fill="#272727"/>
</svg>
