<svg width="50" height="50" viewBox="0 0 50 50" fill="none" xmlns="http://www.w3.org/2000/svg">
<path fill-rule="evenodd" clip-rule="evenodd" d="M0 25C0 11.193 11.193 0 25 0C38.8005 0.0154623 49.9845 11.1995 50 25C50 38.807 38.807 50 25 50C11.193 50 0 38.807 0 25ZM1.66667 25C1.66667 37.8866 12.1134 48.3333 25 48.3333C37.8805 48.3187 48.3187 37.8805 48.3333 25C48.3333 12.1134 37.8866 1.66667 25 1.66667C12.1134 1.66667 1.66667 12.1134 1.66667 25Z" fill="#272727"/>
<path fill-rule="evenodd" clip-rule="evenodd" d="M4.88892 24.8889C4.88892 13.8432 13.8432 4.88892 24.8889 4.88892C35.9294 4.90194 44.8759 13.8485 44.8889 24.8889C44.8889 35.9347 35.9347 44.8889 24.8889 44.8889C13.8432 44.8889 4.88892 35.9347 4.88892 24.8889ZM25.7222 40.7223V43.2015C35.1868 42.7596 42.7596 35.1868 43.2015 25.7222H40.7223C40.262 25.7222 39.8889 25.3491 39.8889 24.8889C39.8889 24.4287 40.262 24.0556 40.7223 24.0556H43.2015C42.7596 14.5911 35.1868 7.01823 25.7222 6.57633V9.05558C25.7222 9.51579 25.3491 9.88892 24.8889 9.88892C24.4287 9.88892 24.0556 9.51579 24.0556 9.05558V6.57633C14.5911 7.01823 7.01823 14.5911 6.57633 24.0556H9.05558C9.51579 24.0556 9.88892 24.4287 9.88892 24.8889C9.88892 25.3491 9.51579 25.7222 9.05558 25.7222H6.57633C7.01823 35.1868 14.5911 42.7596 24.0556 43.2015V40.7223C24.0556 40.262 24.4287 39.8889 24.8889 39.8889C25.3491 39.8889 25.7222 40.262 25.7222 40.7223Z" fill="#272727"/>
<path fill-rule="evenodd" clip-rule="evenodd" d="M27.3425 24.2078H35.833C36.2934 24.2078 36.6667 24.5826 36.6667 25.0449C36.6667 25.5072 36.2934 25.8821 35.833 25.8821H27.3425C26.9383 27.0344 25.7655 27.726 24.5663 27.5192C23.367 27.3119 22.4914 26.2667 22.4938 25.0449C22.4954 24.6709 22.5817 24.3018 22.7454 23.9658L22.7381 23.9609L13.5674 14.7521C13.2515 14.4235 13.256 13.9015 13.5776 13.5786C13.8991 13.2556 14.419 13.2511 14.7463 13.5683L23.917 22.7771L23.9219 22.7844C24.2561 22.6205 24.6228 22.5347 24.9949 22.5334C26.0509 22.5379 26.9904 23.2079 27.3425 24.2078ZM24.1612 25.0449C24.1612 25.5072 24.5345 25.8821 24.9949 25.8821C25.4553 25.8821 25.8286 25.5072 25.8286 25.0449C25.8286 24.5826 25.4553 24.2078 24.9949 24.2078C24.5345 24.2078 24.1612 24.5826 24.1612 25.0449Z" fill="#272727"/>
</svg>
