<?xml version="1.0" encoding="UTF-8"?> <svg xmlns="http://www.w3.org/2000/svg" id="Layer_1" data-name="Layer 1" viewBox="0 0 128 128" width="512px" height="512px"> <g> <path d="M108.718,77.931l-5.44-8.839A39.041,39.041,0,0,0,81.731,34.084l-4.3-6.994a15.767,15.767,0,0,0-26.854,0l-4.3,6.994A39.041,39.041,0,0,0,24.722,69.092l-5.44,8.839A15.765,15.765,0,0,0,32.708,101.96h9.718a39.3,39.3,0,0,0,43.148,0h9.718a15.765,15.765,0,0,0,13.426-24.029ZM106,92.178A12.119,12.119,0,0,1,95.292,98.46H85.042a1.747,1.747,0,0,0-.982.3,35.791,35.791,0,0,1-40.12,0,1.747,1.747,0,0,0-.982-.3H32.708A12.265,12.265,0,0,1,22.263,79.765l5.71-9.279a1.747,1.747,0,0,0,.26-.934l-.011-.417A35.568,35.568,0,0,1,48.268,37a1.745,1.745,0,0,0,.719-.654l4.567-7.42a12.267,12.267,0,0,1,20.892,0l4.567,7.42a1.745,1.745,0,0,0,.719.654A35.568,35.568,0,0,1,99.778,69.135l-.011.417a1.747,1.747,0,0,0,.26.934l5.71,9.279A12.119,12.119,0,0,1,106,92.178Z" data-original="#000000" class="active-path" data-old_color="#000000" fill="#FF0000"></path> <path d="M64,47.359A21.776,21.776,0,1,0,85.775,69.135,21.8,21.8,0,0,0,64,47.359ZM64,87.41A18.276,18.276,0,1,1,82.275,69.135,18.3,18.3,0,0,1,64,87.41Z" data-original="#000000" class="active-path" data-old_color="#000000" fill="#FF0000"></path> <path d="M64,54.979A14.156,14.156,0,1,0,78.155,69.135,14.171,14.171,0,0,0,64,54.979ZM64,79.79A10.656,10.656,0,1,1,74.655,69.135,10.667,10.667,0,0,1,64,79.79Z" data-original="#000000" class="active-path" data-old_color="#000000" fill="#FF0000"></path> <path d="M64,39.773a5.281,5.281,0,1,0-5.28-5.281A5.286,5.286,0,0,0,64,39.773Zm0-7.061a1.781,1.781,0,1,1-1.78,1.78A1.783,1.783,0,0,1,64,32.712Z" data-original="#000000" class="active-path" data-old_color="#000000" fill="#FF0000"></path> <path d="M31.823,81.064a5.281,5.281,0,1,0,5.28,5.281A5.288,5.288,0,0,0,31.823,81.064Zm0,7.061a1.781,1.781,0,1,1,1.78-1.78A1.783,1.783,0,0,1,31.823,88.125Z" data-original="#000000" class="active-path" data-old_color="#000000" fill="#FF0000"></path> <path d="M96.177,81.064a5.281,5.281,0,1,0,5.281,5.281A5.287,5.287,0,0,0,96.177,81.064Zm0,7.061a1.781,1.781,0,1,1,1.781-1.78A1.783,1.783,0,0,1,96.177,88.125Z" data-original="#000000" class="active-path" data-old_color="#000000" fill="#FF0000"></path> </g> </svg> 