<?xml version="1.0" encoding="UTF-8"?> <svg xmlns="http://www.w3.org/2000/svg" id="_x33_0" height="512px" viewBox="0 0 64 64" width="512px"> <g> <path d="m16 31c-1.654 0-3 1.346-3 3s1.346 3 3 3 3-1.346 3-3-1.346-3-3-3zm0 4c-.551 0-1-.449-1-1s.449-1 1-1 1 .449 1 1-.449 1-1 1z" data-original="#000000" class="active-path" data-old_color="#000000" fill="#FF0000"></path> <path d="m54 20h-20c-1.654 0-3 1.346-3 3v16c0 1.654 1.346 3 3 3h20c1.654 0 3-1.346 3-3v-16c0-1.654-1.346-3-3-3zm-13 2h6v3.586l-1-1-2 2-2-2-1 1zm14 17c0 .551-.449 1-1 1h-20c-.551 0-1-.449-1-1v-16c0-.551.449-1 1-1h5v8.414l3-3 2 2 2-2 3 3v-8.414h5c.551 0 1 .449 1 1z" data-original="#000000" class="active-path" data-old_color="#000000" fill="#FF0000"></path> <path d="m52.414 4h-48.414c-1.654 0-3 1.346-3 3v38c0 1.654 1.346 3 3 3h4.152l-3.722 10.423 5.129-1.282 2.692 4.038 3.842-10.245 3.63 10.285 2.718-4.078 5.129 1.282-3.722-10.423h36.152c1.654 0 3-1.346 3-3v-30.414zm.586 3.414 6.586 6.586h-5.586c-.551 0-1-.449-1-1zm-31.198 32.757c-.397 1.117-1.975 2.01-3.185 1.799-.67-.116-1.074-.545-1.311-1.096 1.626-.309 3.055-1.178 4.075-2.403.42.486.65 1.057.421 1.7zm0-12.342c.229.643-.002 1.214-.421 1.701-1.019-1.225-2.449-2.094-4.075-2.403.237-.551.642-.981 1.311-1.096 1.209-.207 2.788.682 3.185 1.798zm-5.802 11.171c-2.757 0-5-2.243-5-5s2.243-5 5-5 5 2.243 5 5-2.243 5-5 5zm-5.802-11.171c.397-1.117 1.979-2.003 3.185-1.799.67.116 1.074.545 1.311 1.096-1.626.309-3.055 1.178-4.075 2.403-.42-.486-.65-1.057-.421-1.7zm4.802-3.299v-1.116l1.494 1.494c-.179.159-.345.333-.494.53-.28-.371-.615-.675-1-.908zm0-3.944v-2.172l2 2v2.172zm0-5v-2.172l2 2v2.172zm2-3-2-2v-2.172l2 2zm0-5-1.586-1.586h1.586zm-4 16.424c-.677.004-1.36.17-2 .454v-18.464h2zm-3.611 7.71c-.248.716-.389 1.481-.389 2.28s.141 1.564.389 2.28c-.667.119-1.346.034-1.83-.546-.742-.891-.742-2.577 0-3.468.483-.58 1.163-.664 1.83-.546zm.809 8.451c-.229-.643.002-1.214.421-1.701 1.019 1.225 2.449 2.094 4.075 2.403-.237.551-.642.981-1.311 1.096-1.207.211-2.788-.682-3.185-1.798zm12.413-8.451c.667-.119 1.346-.034 1.83.546.742.891.742 2.577 0 3.468-.483.58-1.163.665-1.83.546.248-.716.389-1.481.389-2.28s-.141-1.564-.389-2.28zm-1.611-7.256c-.64-.283-1.323-.45-2-.454v-18.01h2zm-17 21.536c-.551 0-1-.449-1-1v-38c0-.551.449-1 1-1h5v19.981c-.29.362-.535.753-.687 1.178-.181.509-.382 1.458.062 2.532-1.229.159-1.989.857-2.353 1.294-1.361 1.634-1.361 4.395 0 6.028.364.437 1.124 1.135 2.353 1.294-.444 1.074-.243 2.023-.062 2.532.294.827.898 1.547 1.647 2.096l-1.093 3.065zm7.749 10.821-1.308-1.962-2.871.718 4.202-11.766c.646.175 1.312.24 1.949.13.949-.164 1.722-.643 2.278-1.378.23.305.507.554.809.766zm9.81-1.962-1.282 1.922-3.092-8.761 1.517-4.045c.092.006.182.023.274.023.418 0 .839-.072 1.252-.184l4.201 11.762zm38.441-8.859h-36.867l-1.093-3.061c.749-.55 1.352-1.271 1.646-2.098.181-.509.382-1.458-.062-2.532 1.229-.159 1.989-.857 2.353-1.294 1.361-1.634 1.361-4.395 0-6.028-.364-.437-1.124-1.135-2.353-1.294.444-1.074.243-2.023.062-2.532-.151-.425-.396-.816-.687-1.178v-19.983h28v7c0 1.654 1.346 3 3 3h7v29c.001.551-.448 1-.999 1z" data-original="#000000" class="active-path" data-old_color="#000000" fill="#FF0000"></path> <path d="m51 36h2v2h-2z" data-original="#000000" class="active-path" data-old_color="#000000" fill="#FF0000"></path> <path d="m47 36h2v2h-2z" data-original="#000000" class="active-path" data-old_color="#000000" fill="#FF0000"></path> <path d="m43 36h2v2h-2z" data-original="#000000" class="active-path" data-old_color="#000000" fill="#FF0000"></path> <path d="m27 12h14v2h-14z" data-original="#000000" class="active-path" data-old_color="#000000" fill="#FF0000"></path> <path d="m27 16h2v2h-2z" data-original="#000000" class="active-path" data-old_color="#000000" fill="#FF0000"></path> <path d="m31 16h2v2h-2z" data-original="#000000" class="active-path" data-old_color="#000000" fill="#FF0000"></path> <path d="m35 16h2v2h-2z" data-original="#000000" class="active-path" data-old_color="#000000" fill="#FF0000"></path> <path d="m43 12h6v2h-6z" data-original="#000000" class="active-path" data-old_color="#000000" fill="#FF0000"></path> <path d="m31 8h14v2h-14z" data-original="#000000" class="active-path" data-old_color="#000000" fill="#FF0000"></path> </g> </svg> 