<?xml version="1.0" encoding="UTF-8"?> <svg xmlns="http://www.w3.org/2000/svg" id="Capa_1" height="512px" viewBox="0 0 512 512" width="512px"> <g> <g> <g> <path d="m477.424 352.98h-206.64l146.042-145.718c6.514-6.499 10.101-15.171 10.101-24.416 0-9.246-3.587-17.918-10.101-24.417l-63.24-63.099c-13.477-13.445-35.402-13.446-48.879.001l-49.922 49.816c-.022.021-.045.039-.067.061-.02.02-.036.042-.055.061l-96.108 95.904v-206.133c0-19.02-15.498-34.493-34.548-34.493h-89.459c-19.05 0-34.548 15.474-34.548 34.493v397.177c0 43.691 35.614 79.236 79.391 79.236 1.918 0 3.814-.092 5.698-.227h392.335c19.065 0 34.576-15.473 34.576-34.492v-89.262c0-19.019-15.511-34.492-34.576-34.492zm-402.753.152 52.463-52.351 52.316 52.199h-100.059c-1.586 0-3.157.061-4.72.152zm226.873 19.848v118.246h-75.242v-118.246zm-93.777-20-66.475-66.327 14.205-14.174c.082-.079.162-.159.24-.24l38.73-38.647 83.827 83.642-35.827 35.748h-34.7zm54.033-186.578 83.83 83.645-53.177 53.059-83.828-83.642zm57.034-56.913c5.686-5.676 14.939-5.674 20.625 0l63.24 63.099c2.727 2.72 4.228 6.363 4.228 10.259 0 3.895-1.501 7.538-4.228 10.258l-42.911 42.816-83.831-83.646zm-198.571 169.895c-.071.067-.147.127-.217.197-.064.064-.118.134-.18.199l-5.814 5.802h-94.052v-75.002h118.555v50.552zm18.292-88.804h-118.555v-75.031h118.555zm-104.007-170.033h89.459c8.021 0 14.548 6.502 14.548 14.493v60.509h-118.555v-60.509c0-7.991 6.526-14.493 14.548-14.493zm-14.548 285.035h74.01l-70.749 70.599c-.262.262-.504.536-.731.819-.864.886-1.707 1.791-2.529 2.716v-74.134zm0 126.635c0-32.663 26.643-59.236 59.391-59.236s59.391 26.573 59.391 59.236c0 30.977-23.968 56.46-54.376 59.01h-5.015c-.636 0-1.257.066-1.86.179-31.889-.986-57.531-27.148-57.531-59.189zm138.781 0c0-23.544-10.353-44.711-26.741-59.236h74.262v118.246h-74c16.238-14.519 26.479-35.59 26.479-59.01zm333.219 44.517c0 7.991-6.539 14.492-14.576 14.492h-60.666v-14.323c0-5.522-4.478-10-10-10s-10 4.478-10 10v14.323h-75.214v-118.246h75.214v14.323c0 5.522 4.478 10 10 10s10-4.478 10-10v-14.323h60.666c8.037 0 14.576 6.501 14.576 14.492z" data-original="#000000" class="active-path" data-old_color="#000000" fill="#FF0000"></path> <path d="m79.391 466.851c19.128 0 34.689-15.537 34.689-34.634 0-19.098-15.562-34.635-34.689-34.635s-34.689 15.537-34.689 34.635c-.001 19.096 15.561 34.634 34.689 34.634zm0-49.269c8.1 0 14.689 6.565 14.689 14.635s-6.59 14.634-14.689 14.634-14.689-6.564-14.689-14.634 6.589-14.635 14.689-14.635z" data-original="#000000" class="active-path" data-old_color="#000000" fill="#FF0000"></path> <path d="m406.758 422.075c-5.522 0-10 4.506-10 10.028s4.478 10 10 10 10-4.478 10-10v-.057c0-5.522-4.478-9.971-10-9.971z" data-original="#000000" class="active-path" data-old_color="#000000" fill="#FF0000"></path> </g> </g> </g> </svg> 